<svg width="1600" height="900" viewBox="0 0 1600 900" xmlns="http://www.w3.org/2000/svg">
  <defs>
    <linearGradient id="sky" x1="0" y1="0" x2="0" y2="1">
      <stop offset="0%" stop-color="#05060f"/>
      <stop offset="45%" stop-color="#0d1230"/>
      <stop offset="75%" stop-color="#241a3d"/>
      <stop offset="100%" stop-color="#3a1f45"/>
    </linearGradient>
    <radialGradient id="moonGlow" cx="50%" cy="50%" r="50%">
      <stop offset="0%" stop-color="#fdf6e3" stop-opacity="0.9"/>
      <stop offset="100%" stop-color="#fdf6e3" stop-opacity="0"/>
    </radialGradient>
  </defs>

  <rect x="0" y="0" width="1600" height="900" fill="url(#sky)"/>

  <circle cx="1280" cy="160" r="140" fill="url(#moonGlow)"/>
  <circle cx="1280" cy="160" r="60" fill="#fdf6e3"/>

  <g fill="#f5efe0">
    <circle cx="120" cy="90" r="1.6"/>
    <circle cx="220" cy="150" r="1.2"/>
    <circle cx="340" cy="60" r="1.8"/>
    <circle cx="470" cy="120" r="1.3"/>
    <circle cx="560" cy="200" r="1.5"/>
    <circle cx="680" cy="80" r="1.2"/>
    <circle cx="780" cy="150" r="1.8"/>
    <circle cx="900" cy="70" r="1.3"/>
    <circle cx="1000" cy="180" r="1.5"/>
    <circle cx="1100" cy="100" r="1.2"/>
    <circle cx="60" cy="220" r="1.4"/>
    <circle cx="1450" cy="90" r="1.6"/>
    <circle cx="1550" cy="200" r="1.2"/>
    <circle cx="1380" cy="280" r="1.4"/>
    <circle cx="200" cy="300" r="1.1"/>
    <circle cx="820" cy="260" r="1.2"/>
  </g>

  <g stroke="#0a0812" stroke-linecap="round" fill="none" opacity="0.5">
    <g stroke-width="3">
      <path d="M75 900 L85 560"/>
      <path d="M85 700 L55 630"/>
      <path d="M85 700 L60 640 L40 600"/>
      <path d="M85 630 L110 580"/>
      <path d="M85 630 L115 590 L135 555"/>
      <path d="M85 560 L60 500"/>
      <path d="M85 560 L105 505"/>
      <path d="M85 560 L105 505 L125 465"/>
    </g>
    <g stroke-width="2.5">
      <path d="M330 900 L342 520"/>
      <path d="M342 700 L305 620"/>
      <path d="M342 700 L305 620 L280 570"/>
      <path d="M342 620 L375 560"/>
      <path d="M342 620 L378 555 L400 510"/>
      <path d="M342 520 L315 460"/>
      <path d="M342 520 L365 460"/>
      <path d="M342 520 L365 460 L385 420"/>
    </g>
    <g stroke-width="3.2">
      <path d="M1150 900 L1160 540"/>
      <path d="M1160 720 L1125 640"/>
      <path d="M1160 720 L1125 640 L1100 590"/>
      <path d="M1160 640 L1195 580"/>
      <path d="M1160 640 L1198 575 L1220 530"/>
      <path d="M1160 540 L1132 480"/>
      <path d="M1160 540 L1185 480"/>
      <path d="M1160 540 L1185 480 L1205 440"/>
    </g>
    <g stroke-width="2.2">
      <path d="M1470 900 L1480 600"/>
      <path d="M1480 750 L1450 680"/>
      <path d="M1480 750 L1450 680 L1425 640"/>
      <path d="M1480 680 L1510 630"/>
      <path d="M1480 680 L1512 625 L1532 590"/>
      <path d="M1480 600 L1455 545"/>
      <path d="M1480 600 L1502 545"/>
    </g>
  </g>

  <g stroke="#050208" stroke-linecap="round" fill="none">
    <g stroke-width="5">
      <path d="M220 900 L235 460"/>
      <path d="M235 680 L185 590"/>
      <path d="M235 680 L185 590 L150 530"/>
      <path d="M235 590 L280 520"/>
      <path d="M235 590 L285 512 L320 460"/>
      <path d="M235 460 L195 390"/>
      <path d="M235 460 L195 390 L165 330"/>
      <path d="M235 460 L270 390"/>
      <path d="M235 460 L270 390 L300 335"/>
      <path d="M235 330 L215 275"/>
      <path d="M235 330 L255 275"/>
    </g>
    <g stroke-width="4.5">
      <path d="M600 900 L615 480"/>
      <path d="M615 700 L565 615"/>
      <path d="M615 700 L565 615 L530 555"/>
      <path d="M615 610 L660 540"/>
      <path d="M615 610 L663 532 L695 480"/>
      <path d="M615 480 L578 410"/>
      <path d="M615 480 L578 410 L548 350"/>
      <path d="M615 480 L648 410"/>
      <path d="M615 480 L648 410 L678 355"/>
      <path d="M615 350 L595 295"/>
      <path d="M615 350 L633 295"/>
    </g>
    <g stroke-width="4">
      <path d="M950 900 L962 500"/>
      <path d="M962 700 L920 620"/>
      <path d="M962 700 L920 620 L888 565"/>
      <path d="M962 615 L1000 550"/>
      <path d="M962 615 L1003 543 L1030 495"/>
      <path d="M962 500 L928 435"/>
      <path d="M962 500 L928 435 L900 380"/>
      <path d="M962 500 L992 435"/>
      <path d="M962 500 L992 435 L1018 385"/>
    </g>
    <g stroke-width="5.2">
      <path d="M1360 900 L1375 440"/>
      <path d="M1375 660 L1322 570"/>
      <path d="M1375 660 L1322 570 L1285 505"/>
      <path d="M1375 570 L1425 495"/>
      <path d="M1375 570 L1428 487 L1465 430"/>
      <path d="M1375 440 L1335 365"/>
      <path d="M1375 440 L1335 365 L1302 300"/>
      <path d="M1375 440 L1412 365"/>
      <path d="M1375 440 L1412 365 L1445 305"/>
      <path d="M1375 300 L1352 240"/>
      <path d="M1375 300 L1396 240"/>
    </g>
  </g>
</svg>
